#N canvas 643 30 766 817 10;
#X declare -lib mrPeach;
#X obj 356 116 gemwin;
#X msg 453 82 0 \, destroy;
#N canvas 867 312 569 431 motionBlur 0;
#X obj 156 -371 pix_snap2tex;
#X msg 201 -395 0 0;
#X obj 201 -418 t b b;
#X obj 156 -411 t b a;
#X obj 156 -333 alpha;
#X floatatom 329 -343 5 0 0 0 - - -;
#X obj 334 -491 vsl 15 128 0 1 0 0 empty empty empty 0 -8 0 8 -262144
-1 -1 0 1;
#X obj 201 -437 loadbang;
#X obj 174 -462 translateXYZ 0 0 0.1;
#X msg 249 -397 500 500;
#X obj 156 -309 colorRGB 1 1 1 0.888;
#X text 354 -441 amount of motion blur;
#X text 226 -263 larger than 3.9 makes blur go out;
#X text 229 -241 less than 3.9 makes blur go into screen;
#X obj 334 -528 inlet;
#X obj 133 -522 inlet;
#X obj 37 37;
#X obj 37 37;
#X obj 156 -492 gemhead 15;
#X obj 153 -262 square 2.5;
#X connect 0 0 4 0;
#X connect 1 0 0 1;
#X connect 2 0 1 0;
#X connect 2 1 9 0;
#X connect 3 0 0 0;
#X connect 3 1 0 0;
#X connect 4 0 10 0;
#X connect 5 0 10 4;
#X connect 6 0 5 0;
#X connect 7 0 2 0;
#X connect 8 0 3 0;
#X connect 9 0 0 2;
#X connect 10 0 19 0;
#X connect 14 0 6 0;
#X connect 15 0 18 0;
#X connect 18 0 8 0;
#X restore 449 202 pd motionBlur;
#X obj 524 139 loadbang;
#X msg 524 169 0;
#X text 592 140 glow;
#X msg 478 171 0.998;
#X obj 465 -1 cnv 15 100 60 empty empty empty 20 12 0 14 -4034 -66577
0;
#N canvas 473 155 810 704 networking 0;
#X floatatom 216 154 3 0 0 0 - - -;
#X floatatom 243 154 3 0 0 0 - - -;
#X floatatom 270 154 3 0 0 0 - - -;
#X floatatom 297 154 3 0 0 0 - - -;
#X text 173 153 from;
#X obj 64 191 print message;
#X floatatom 267 106 5 0 0 0 - - -;
#X text 313 104 connections;
#X text 42 26 tcpreceive receives bytes over a tcp connection.;
#X floatatom 325 154 5 0 0 0 - - -;
#X obj 216 127 unpack 0 0 0 0 0;
#X obj 413 27 import mrPeach;
#X obj 171 270 unpack 0 0 0 0 0 0 0 0 0 0;
#X floatatom 168 302 3 0 0 0 - - -;
#X floatatom 195 302 3 0 0 0 - - -;
#X floatatom 222 302 3 0 0 0 - - -;
#X floatatom 249 302 3 0 0 0 - - -;
#X floatatom 277 302 5 0 0 0 - - -;
#X floatatom 315 303 3 0 0 0 - - -;
#X floatatom 342 303 3 0 0 0 - - -;
#X floatatom 369 303 3 0 0 0 - - -;
#X floatatom 396 303 3 0 0 0 - - -;
#X floatatom 424 303 5 0 0 0 - - -;
#X msg 608 195 disconnect;
#X obj 583 273 tgl 15 0 empty empty connected 20 7 0 8 -24198 -241291
-1 0 1;
#X obj 583 250 tcpsend;
#X text 740 80 <--first;
#X msg 555 103 send 0 1 2 3;
#X msg 573 126 send examples/test.txt;
#X text 671 104 send raw data;
#X text 660 154 'send' prefix is optional;
#X msg 584 153 99 98 97;
#X msg 536 79 connect 127.0.0.1 50007;
#X obj 165 67 tcpreceive 7506;
#X connect 10 0 0 0;
#X connect 10 1 1 0;
#X connect 10 2 2 0;
#X connect 10 3 3 0;
#X connect 10 4 9 0;
#X connect 12 0 13 0;
#X connect 12 1 14 0;
#X connect 12 2 15 0;
#X connect 12 3 16 0;
#X connect 12 4 17 0;
#X connect 12 5 18 0;
#X connect 12 6 19 0;
#X connect 12 7 20 0;
#X connect 12 8 21 0;
#X connect 12 9 22 0;
#X connect 23 0 25 0;
#X connect 25 0 24 0;
#X connect 27 0 25 0;
#X connect 28 0 25 0;
#X connect 31 0 25 0;
#X connect 32 0 25 0;
#X connect 33 0 5 0;
#X connect 33 0 12 0;
#X connect 33 1 10 0;
#X connect 33 2 6 0;
#X restore 38 45 pd networking;
#X obj 449 169 tgl 15 0 empty empty empty 17 7 0 10 -4034 -1 -1 0 1
;
#N canvas 728 278 450 300 headMapPoint 1;
#N canvas 5 382 549 412 posToXYZ 0;
#X obj 83 20 inlet X;
#X obj 270 26 inlet Y;
#X obj 46 349 outlet X;
#X obj 153 355 outlet Y;
#X obj 306 359 outlet Z;
#X obj 94 157 * 360;
#X obj 78 207 deg2rad;
#X obj 69 245 sin;
#X obj 132 245 cos;
#X obj 184 283 *;
#X obj 70 279 *;
#X obj 275 161 * 1.8;
#X obj 275 186 deg2rad;
#X obj 275 233 sin;
#X obj 100 44 t b 0;
#X obj 262 58 t b 0 0;
#X obj 277 86 f;
#X obj 153 103 f;
#X floatatom 334 214 5 0 0 0 - - -;
#X obj 271 110 * 100;
#X obj 86 305 * 2;
#X obj 305 313 * 2;
#X obj 195 329 * 2;
#X obj 381 80 / 0.5;
#X connect 0 0 14 0;
#X connect 1 0 15 0;
#X connect 5 0 6 0;
#X connect 6 0 7 0;
#X connect 6 0 8 0;
#X connect 7 0 10 0;
#X connect 8 0 9 0;
#X connect 9 0 21 0;
#X connect 10 0 20 0;
#X connect 11 0 12 0;
#X connect 11 0 18 0;
#X connect 12 0 13 0;
#X connect 13 0 9 1;
#X connect 13 0 10 1;
#X connect 14 0 16 0;
#X connect 14 1 17 0;
#X connect 15 0 17 0;
#X connect 15 1 23 0;
#X connect 15 2 16 0;
#X connect 16 0 19 0;
#X connect 17 0 5 0;
#X connect 19 0 11 0;
#X connect 20 0 2 0;
#X connect 21 0 4 0;
#X connect 22 0 3 0;
#X connect 23 0 22 0;
#X restore -10726 203 pd posToXYZ;
#X obj -10907 107 colorRGB 0 1 0;
#X obj -10808 250 translateXYZ 0 0 0;
#X obj -10721 127 hsl 128 15 0 1 0 0 empty empty longitude 0 8 0 10
-260097 -1 -1 0 1;
#X obj -10717 105 hsl 128 15 0 1 0 0 empty empty latitude 0 8 0 10
-257985 -1 -1 6350 1;
#X obj -10847 225 rotateXYZ 0 0 0;
#X obj -10962 195 r rotVal;
#X obj -10908 78 gemhead 9;
#X obj -10896 193 colorRGB;
#X obj -10816 151 unpack 0 0 0;
#X obj -10989 159 pack 1 1 1;
#X floatatom -10989 135 5 0 0 0 - - -;
#X obj -10979 225 % 36;
#X obj -10979 253 - 18;
#X obj -11022 260 abs;
#X obj -10988 275 / 100;
#X obj -10805 280 cube 0.1;
#X obj -10664 44 loadbang;
#X msg -10695 77 0.5;
#X obj -10924 125 translateXYZ 0 -2 0;
#X text -10748 26 heat map fire location;
#X obj -10946 21 loadbang;
#X msg -10964 48 0;
#X obj -10888 47 inlet;
#X obj -10882 168 hsv2rgb;
#X connect 0 0 2 1;
#X connect 0 1 2 2;
#X connect 0 2 2 3;
#X connect 1 0 19 0;
#X connect 2 0 16 0;
#X connect 3 0 0 0;
#X connect 4 0 0 1;
#X connect 5 0 2 0;
#X connect 6 0 5 2;
#X connect 6 0 12 0;
#X connect 7 0 1 0;
#X connect 8 0 5 0;
#X connect 9 0 8 1;
#X connect 9 1 8 2;
#X connect 9 2 8 3;
#X connect 10 0 24 0;
#X connect 11 0 10 0;
#X connect 12 0 13 0;
#X connect 13 0 15 0;
#X connect 14 0 11 0;
#X connect 15 0 14 0;
#X connect 17 0 18 0;
#X connect 18 0 4 0;
#X connect 19 0 8 0;
#X connect 21 0 22 0;
#X connect 22 0 7 0;
#X connect 23 0 7 0;
#X connect 24 0 9 0;
#X restore 100 331 pd headMapPoint;
#X obj 85 332 tgl 15 0 empty empty empty 17 7 0 10 -262144 -1 -1 0
1;
#X msg 356 54 view 0 0 15 \, perspec -1 1 -1 1 6 50;
#N canvas 775 53 601 777 heatMap 0;
#X msg 108 662 draw line;
#X msg 108 686 draw fill;
#X obj 66 580 translateXYZ 0 0 0;
#X obj 63 192 separator;
#X text 164 102 rotates entire structure;
#X obj 108 637 loadbang;
#X msg 94 376 bang;
#X obj 237 345 int;
#X obj 60 447 unpack 0 0 0;
#X obj 157 160 bang;
#X obj 184 431 * 360;
#X obj 181 482 deg2rad;
#X obj 177 506 sin;
#X obj 255 506 cos;
#X obj 73 509 *;
#X obj 96 294 t b 0 0 0;
#X obj 307 437 deg2rad;
#X obj 307 484 sin;
#X obj 63 132 repeat 1600;
#X obj 157 185 counter 0 1599;
#X obj 236 324 / 40;
#X obj 225 376 / 40;
#X obj 140 366 / 40;
#X obj 303 361 * 40;
#X obj 139 342 counter 0 39;
#X obj 306 384 / 1600;
#X obj 307 412 * 180;
#X obj 70 532 * 2;
#X obj 168 531 * 2;
#X obj 204 528 *;
#X obj 240 -2 separator;
#X obj 371 427 deg2rad;
#X obj 281 544 *;
#X obj 371 451 sin;
#X obj 371 403 * 120;
#X obj 261 440 / 10;
#X obj 65 611 scaleXYZ 1 1 1;
#X obj 63 102 rotateXYZ 0 0 0;
#X obj 107 712 cube 0.05;
#X obj 66 1 translateXYZ 0 -2 0;
#X obj 105 56 r rotVal;
#X obj 212 695 * 0.1;
#X obj 50 497 colorRGB 1 1 1 0.5;
#X obj 235 659 != 0;
#X obj 57 734 sphere 0.1 5;
#N canvas 486 22 882 728 mixOverlay 0;
#X obj 191 629 outlet;
#X obj 68 4 inlet;
#X obj 91 246 r layer1val;
#X obj 65 460 pix_mix;
#X obj 91 389 r layer5val;
#X obj 2 190 pix_image Empty00.PNG;
#X obj 41 314 pix_mix;
#X obj 54 217 pix_image Empty00.PNG;
#X obj 189 189 pix_image Empty00.PNG;
#X obj 241 216 pix_image Empty00.PNG;
#X obj 62 82 pix_image Country01.PNG;
#X obj 109 128 pix_image Country03.PNG;
#X obj 135 151 pix_image Country04.PNG;
#X obj 226 83 pix_image Country05.PNG;
#X obj 239 103 pix_image Country06.PNG;
#X obj 268 127 pix_image Country07.PNG;
#X obj 289 150 pix_image Country08.PNG;
#X obj 88 105 pix_image Country02.PNG;
#X obj 279 313 pix_mix;
#X obj 193 257 r layer2val;
#X obj 312 265 r layer3val;
#X obj 400 310 pix_mix;
#X obj 442 261 r layer4val;
#X obj 215 389 r layer6val;
#X obj 339 394 r layer7val;
#X obj 460 391 r layer8val;
#X obj 424 456 pix_mix;
#X obj 303 459 pix_mix;
#X obj 181 460 pix_mix;
#X obj 157 314 pix_mix;
#X obj 80 339 pix_image Empty00.PNG;
#X obj 132 366 pix_image Empty00.PNG;
#X obj 267 338 pix_image Empty00.PNG;
#X obj 319 365 pix_image Empty00.PNG;
#X obj 18 154 separator;
#X obj 437 594 pix_texture;
#X msg 529 615 quality 0;
#X obj 531 595 loadbang;
#X obj 438 630 square 2.5;
#X obj 80 492 pix_add;
#X obj 327 495 pix_add;
#X obj 389 498 pix_add;
#X obj 636 501 pix_add;
#X obj 514 533 pix_add;
#X obj 205 527 pix_add;
#X obj 360 577 pix_add;
#X obj 106 283 / 2;
#X obj 186 282 / 2;
#X obj 332 287 / 2;
#X obj 458 285 / 2;
#X obj 125 419 / 2;
#X obj 205 418 / 2;
#X obj 351 423 / 2;
#X obj 477 421 / 2;
#X connect 1 0 7 0;
#X connect 1 0 8 0;
#X connect 1 0 9 0;
#X connect 1 0 10 0;
#X connect 1 0 11 0;
#X connect 1 0 12 0;
#X connect 1 0 13 0;
#X connect 1 0 14 0;
#X connect 1 0 15 0;
#X connect 1 0 16 0;
#X connect 1 0 17 0;
#X connect 1 0 30 0;
#X connect 1 0 31 0;
#X connect 1 0 32 0;
#X connect 1 0 33 0;
#X connect 1 0 34 0;
#X connect 2 0 46 0;
#X connect 3 0 41 0;
#X connect 4 0 50 0;
#X connect 5 0 6 0;
#X connect 6 0 39 0;
#X connect 7 0 29 0;
#X connect 8 0 18 0;
#X connect 9 0 21 0;
#X connect 10 0 6 1;
#X connect 11 0 18 1;
#X connect 12 0 21 1;
#X connect 13 0 3 1;
#X connect 14 0 28 1;
#X connect 15 0 27 1;
#X connect 16 0 26 1;
#X connect 17 0 29 1;
#X connect 18 0 40 0;
#X connect 19 0 47 0;
#X connect 20 0 48 0;
#X connect 21 0 40 1;
#X connect 22 0 49 0;
#X connect 23 0 51 0;
#X connect 24 0 52 0;
#X connect 25 0 53 0;
#X connect 26 0 42 1;
#X connect 27 0 42 0;
#X connect 28 0 41 1;
#X connect 29 0 39 1;
#X connect 30 0 3 0;
#X connect 31 0 28 0;
#X connect 32 0 27 0;
#X connect 33 0 26 0;
#X connect 34 0 5 0;
#X connect 35 0 38 0;
#X connect 36 0 35 0;
#X connect 37 0 36 0;
#X connect 39 0 44 0;
#X connect 40 0 44 1;
#X connect 41 0 43 0;
#X connect 42 0 43 1;
#X connect 43 0 45 1;
#X connect 44 0 45 0;
#X connect 45 0 0 0;
#X connect 46 0 6 2;
#X connect 47 0 29 2;
#X connect 48 0 18 2;
#X connect 49 0 21 2;
#X connect 50 0 3 2;
#X connect 51 0 28 2;
#X connect 52 0 27 2;
#X connect 53 0 26 2;
#X restore 376 268 pd mixOverlay;
#X obj 22 350 alpha 1;
#X obj 95 406 pix_data;
#X obj 142 458 * 3;
#X obj 214 564 * 1;
#X obj 169 555 * 1;
#X obj 98 555 * 1;
#X obj 63 -20 gemhead 10;
#X connect 0 0 44 0;
#X connect 1 0 44 0;
#X connect 2 0 36 0;
#X connect 3 0 46 0;
#X connect 5 0 1 0;
#X connect 6 0 47 0;
#X connect 7 0 21 0;
#X connect 7 0 23 0;
#X connect 7 0 35 0;
#X connect 8 0 42 1;
#X connect 8 1 42 2;
#X connect 8 2 42 3;
#X connect 9 0 19 0;
#X connect 10 0 11 0;
#X connect 11 0 12 0;
#X connect 11 0 13 0;
#X connect 12 0 14 0;
#X connect 13 0 29 0;
#X connect 14 0 27 0;
#X connect 15 0 6 0;
#X connect 15 1 24 0;
#X connect 15 2 20 0;
#X connect 16 0 17 0;
#X connect 17 0 14 1;
#X connect 17 0 29 1;
#X connect 18 0 9 0;
#X connect 18 0 3 0;
#X connect 19 0 15 0;
#X connect 20 0 7 0;
#X connect 21 0 47 3;
#X connect 22 0 10 0;
#X connect 22 0 47 2;
#X connect 23 0 25 0;
#X connect 24 0 22 0;
#X connect 25 0 26 0;
#X connect 25 0 34 0;
#X connect 26 0 16 0;
#X connect 27 0 51 0;
#X connect 28 0 50 0;
#X connect 29 0 28 0;
#X connect 30 0 45 0;
#X connect 31 0 33 0;
#X connect 32 0 49 0;
#X connect 33 0 32 1;
#X connect 34 0 31 0;
#X connect 35 0 32 0;
#X connect 36 0 44 0;
#X connect 37 0 18 0;
#X connect 39 0 37 0;
#X connect 40 0 37 2;
#X connect 41 0 44 1;
#X connect 42 0 2 0;
#X connect 43 0 41 0;
#X connect 45 0 47 1;
#X connect 46 0 42 0;
#X connect 47 1 8 0;
#X connect 47 2 48 0;
#X connect 48 0 42 4;
#X connect 49 0 2 2;
#X connect 50 0 2 3;
#X connect 51 0 2 1;
#X connect 52 0 30 0;
#X connect 52 0 39 0;
#X restore 115 224 pd heatMap;
#X msg 474 10 reset \, dimen 500 500 \, FSAA 8 \, create \, 1 \, frame
15;
#X obj 356 26 bng 15 250 50 0 empty empty empty 17 7 0 10 -262144 -1
-1;
#N canvas 935 378 450 300 setCountryValues 0;
#X obj -172 38 hsl 128 15 0 1 0 1 empty empty empty -2 -6 0 8 -262144
-1 -1 8389 1;
#X floatatom -175 63 5 0 0 0 - - -;
#X obj -177 85 s layer1val;
#X obj -170 114 hsl 128 15 0 1 0 1 empty empty empty -2 -6 0 8 -262144
-1 -1 7780 1;
#X floatatom -173 139 5 0 0 0 - - -;
#X obj -175 161 s layer2val;
#X obj 9 35 hsl 128 15 0 1 0 1 empty empty empty -2 -6 0 8 -262144
-1 -1 862 1;
#X floatatom 6 60 5 0 0 0 - - -;
#X obj 11 111 hsl 128 15 0 1 0 1 empty empty empty -2 -6 0 8 -262144
-1 -1 0 1;
#X floatatom 8 136 5 0 0 0 - - -;
#X obj -172 205 hsl 128 15 0 1 0 1 empty empty empty -2 -6 0 8 -262144
-1 -1 8689 1;
#X floatatom -175 230 5 0 0 0 - - -;
#X obj -170 281 hsl 128 15 0 1 0 1 empty empty empty -2 -6 0 8 -262144
-1 -1 0 1;
#X floatatom -173 306 5 0 0 0 - - -;
#X obj 42 202 hsl 128 15 0 1 0 1 empty empty empty -2 -6 0 8 -262144
-1 -1 0 1;
#X floatatom 39 227 5 0 0 0 - - -;
#X obj 44 278 hsl 128 15 0 1 0 1 empty empty empty -2 -6 0 8 -262144
-1 -1 0 1;
#X floatatom 41 303 5 0 0 0 - - -;
#X obj -177 252 s layer3val;
#X obj -175 328 s layer4val;
#X obj 3 83 s layer5val;
#X obj 6 158 s layer6val;
#X obj 37 250 s layer7val;
#X obj 39 325 s layer8val;
#X obj -198 6 inlet;
#X obj -158 6 inlet;
#X obj -122 8 inlet;
#X obj -85 6 inlet;
#X obj 3 8 inlet;
#X obj 39 8 inlet;
#X obj 79 6 inlet;
#X obj 126 8 inlet;
#X connect 0 0 1 0;
#X connect 1 0 2 0;
#X connect 3 0 4 0;
#X connect 4 0 5 0;
#X connect 6 0 7 0;
#X connect 7 0 20 0;
#X connect 8 0 9 0;
#X connect 9 0 21 0;
#X connect 10 0 11 0;
#X connect 11 0 18 0;
#X connect 12 0 13 0;
#X connect 13 0 19 0;
#X connect 14 0 15 0;
#X connect 15 0 22 0;
#X connect 16 0 17 0;
#X connect 17 0 23 0;
#X connect 24 0 0 0;
#X connect 25 0 3 0;
#X connect 26 0 10 0;
#X connect 27 0 12 0;
#X connect 28 0 6 0;
#X connect 29 0 8 0;
#X connect 30 0 14 0;
#X connect 31 0 16 0;
#X restore 471 401 pd setCountryValues;
#X obj 469 333 cnv 15 120 60 empty empty empty 20 12 0 14 -258113 -66577
0;
#X obj 471 358 vsl 8 20 0 1 0 0 empty empty 1 0 -9 0 10 -262144 -1
-1 1255 1;
#X obj 486 357 vsl 8 20 0 1 0 0 empty empty 2 0 -9 0 10 -262144 -1
-1 1164 1;
#X obj 502 358 vsl 8 20 0 1 0 0 empty empty 3 0 -9 0 10 -262144 -1
-1 0 1;
#X obj 517 357 vsl 8 20 0 1 0 0 empty empty 4 0 -9 0 10 -262144 -1
-1 0 1;
#X obj 531 359 vsl 8 20 0 1 0 0 empty empty 5 0 -9 0 10 -262144 -1
-1 129 1;
#X obj 546 358 vsl 8 20 0 1 0 0 empty empty 6 0 -9 0 10 -262144 -1
-1 0 1;
#X obj 562 359 vsl 8 20 0 1 0 0 empty empty 7 0 -9 0 10 -262144 -1
-1 0 1;
#X obj 577 358 vsl 8 20 0 1 0 0 empty empty 8 0 -9 0 10 -262144 -1
-1 0 1;
#X obj 491 269 cnv 15 100 60 empty empty empty 20 12 0 14 -257985 -66577
0;
#X obj 418 297 _smoothwander 0 1 1000;
#X obj 580 298 _smoothwander 0 1 1000;
#X text 368 278 smoothwander just used for testing before actual data
;
#X text 476 27 Click to start;
#X text 23 165 Load in main globe from World40x40.PNG;
#X text 22 183 Display on a 40x40 point globe;
#X text 20 291 Extra function if you want a single hotspot;
#N canvas 752 336 450 300 background 0;
#X obj 97 158 square 15;
#X text 152 66 background;
#X obj 97 94 translateXYZ 0 0 0;
#X obj 97 125 colorRGB 0.15 0.15 0.15;
#X obj 99 48 tgl 15 0 empty empty empty 17 7 0 10 -262144 -1 -1 0 1
;
#X obj 97 68 gemhead 5;
#X connect 2 0 3 0;
#X connect 3 0 0 0;
#X connect 4 0 5 0;
#X connect 5 0 2 0;
#X restore 62 435 pd background;
#X text 12 405 A square for the background that hides the inside of
the globe;
#X text 373 423 Set these values from 8 top countries of data;
#X text 8 23 Listen to Python and send data to 8 country sliders;
#N canvas 416 405 577 398 globe 1;
#X msg 98 683 draw line;
#X msg 98 707 draw fill;
#X obj 53 601 translateXYZ 0 0 0;
#X obj 53 182 separator;
#X obj 87 46 counter 0 359;
#X obj 87 18 bang;
#X text 154 92 rotates entire structure;
#X obj 98 658 loadbang;
#X obj 53 481 colorRGB 1 1 1 1;
#X floatatom 85 68 5 0 0 0 - - -;
#X obj 85 396 pix_data;
#X msg 84 366 bang;
#X obj 227 335 int;
#X obj 74 419 unpack 0 0 0;
#X obj 147 150 bang;
#X obj 174 421 * 360;
#X obj 171 472 deg2rad;
#X obj 167 496 sin;
#X obj 245 496 cos;
#X obj 92 520 *;
#X obj 86 284 t b 0 0 0;
#X obj 297 427 deg2rad;
#X obj 297 474 sin;
#X obj 176 126 s rotVal;
#X obj 53 122 repeat 1600;
#X obj 147 175 counter 0 1599;
#X obj 226 314 / 40;
#X obj 215 366 / 40;
#X obj 130 356 / 40;
#X obj 293 351 * 40;
#X obj 129 332 counter 0 39;
#X obj 296 374 / 1600;
#X obj 297 402 * 180;
#X obj 89 543 * 2;
#X obj 162 536 * 2;
#X obj 216 559 *;
#X obj 233 251 pix_image World40x40.PNG;
#X obj 230 -12 separator;
#X obj 361 417 deg2rad;
#X obj 271 534 *;
#X obj 361 441 sin;
#X obj 361 393 * 120;
#X obj 251 430 / 10;
#X obj 53 92 rotateXYZ 0 0 0;
#X obj 97 733 cube 0.05;
#X obj 53 -9 translateXYZ 0 -2 0;
#X obj 53 755 sphere 0.04 5;
#X obj 73 444 *;
#X obj 93 446 *;
#X obj 117 449 *;
#X obj 434 420 hsl 128 15 0 1 0 0 empty empty empty -2 -8 0 10 -262144
-1 -1 12700 1;
#X msg 428 395 1;
#X obj 428 372 loadbang;
#X obj 100 575 * 1;
#X obj 132 570 * 1;
#X obj 171 575 * 1;
#X obj 53 632 scaleXYZ 1 1 1;
#X obj 49 -28 gemhead 5;
#X connect 0 0 46 0;
#X connect 1 0 46 0;
#X connect 2 0 56 0;
#X connect 3 0 8 0;
#X connect 4 0 9 0;
#X connect 5 0 4 0;
#X connect 7 0 1 0;
#X connect 8 0 2 0;
#X connect 9 0 23 0;
#X connect 9 0 43 2;
#X connect 10 1 13 0;
#X connect 10 2 8 4;
#X connect 11 0 10 0;
#X connect 12 0 27 0;
#X connect 12 0 29 0;
#X connect 12 0 42 0;
#X connect 13 0 47 0;
#X connect 13 1 48 0;
#X connect 13 2 49 0;
#X connect 14 0 25 0;
#X connect 15 0 16 0;
#X connect 16 0 17 0;
#X connect 16 0 18 0;
#X connect 17 0 19 0;
#X connect 18 0 35 0;
#X connect 19 0 33 0;
#X connect 20 0 11 0;
#X connect 20 1 30 0;
#X connect 20 2 26 0;
#X connect 21 0 22 0;
#X connect 22 0 19 1;
#X connect 22 0 35 1;
#X connect 24 0 3 0;
#X connect 24 0 14 0;
#X connect 25 0 20 0;
#X connect 26 0 12 0;
#X connect 27 0 10 3;
#X connect 28 0 10 2;
#X connect 28 0 15 0;
#X connect 29 0 31 0;
#X connect 30 0 28 0;
#X connect 31 0 32 0;
#X connect 31 0 41 0;
#X connect 32 0 21 0;
#X connect 33 0 53 0;
#X connect 34 0 55 0;
#X connect 35 0 34 0;
#X connect 36 0 10 1;
#X connect 37 0 36 0;
#X connect 38 0 40 0;
#X connect 39 0 54 0;
#X connect 40 0 39 1;
#X connect 41 0 38 0;
#X connect 42 0 39 0;
#X connect 43 0 24 0;
#X connect 45 0 5 0;
#X connect 45 0 43 0;
#X connect 47 0 8 1;
#X connect 48 0 8 2;
#X connect 49 0 8 3;
#X connect 50 0 49 1;
#X connect 50 0 48 1;
#X connect 50 0 47 1;
#X connect 51 0 50 0;
#X connect 52 0 51 0;
#X connect 53 0 2 1;
#X connect 54 0 2 2;
#X connect 55 0 2 3;
#X connect 56 0 46 0;
#X connect 57 0 37 0;
#X connect 57 0 45 0;
#X restore 25 222 pd globe;
#X obj 600 337 _smoothwander 0 1 1000;
#X text 40 308 (might be on other side of globe);
#X connect 1 0 0 0;
#X connect 3 0 4 0;
#X connect 4 0 2 1;
#X connect 6 0 2 1;
#X connect 9 0 2 0;
#X connect 11 0 10 0;
#X connect 12 0 0 0;
#X connect 14 0 0 0;
#X connect 14 0 15 0;
#X connect 15 0 12 0;
#X connect 18 0 16 0;
#X connect 19 0 16 1;
#X connect 20 0 16 2;
#X connect 21 0 16 3;
#X connect 22 0 16 4;
#X connect 23 0 16 5;
#X connect 24 0 16 6;
#X connect 25 0 16 7;
#X connect 27 0 18 0;
#X connect 28 0 19 0;
#X connect 39 0 22 0;
