#N canvas 0 22 450 300 10;
#X obj 148 11 loadbang;
#X obj 122 87 metro 1000;
#X obj 118 190 line;
#X obj 179 65 \$3;
#X obj 123 41 t b b;
#X obj 105 13 bng 15 250 50 0 empty empty empty 17 7 0 10 -262144 -1
-1;
#X obj 123 114 _wander \$1 \$2;
#X obj 118 161 pack 0 0;
#X msg 124 138 \$1;
#X obj 121 258 outlet;
#X obj 162 235 spigot 1;
#X obj 27 14 inlet;
#X obj 211 123 tgl 15 0 empty empty empty 17 7 0 10 -262144 -1 -1 0
1;
#X connect 0 0 4 0;
#X connect 1 0 6 0;
#X connect 2 0 10 0;
#X connect 3 0 1 1;
#X connect 3 0 7 1;
#X connect 4 0 1 0;
#X connect 4 1 3 0;
#X connect 5 0 4 0;
#X connect 6 0 8 0;
#X connect 7 0 2 0;
#X connect 8 0 7 0;
#X connect 10 0 9 0;
#X connect 11 0 12 0;
#X connect 12 0 10 1;
