#N canvas 413 278 620 784 10;
#X obj 83 147 inlet;
#X obj 82 241 \$1;
#X obj 133 241 \$2;
#X obj 168 354 random 10000;
#X obj 167 387 / 10000;
#X obj 97 269 -;
#X obj 83 179 t b b;
#X obj 95 302 abs;
#X obj 105 454 +;
#X obj 93 409 \$1;
#X obj 135 431 *;
#X obj 95 325 t b 0 b;
#X obj 105 489 outlet;
#X text 177 157 Generate a random number within the range;
#X connect 0 0 6 0;
#X connect 1 0 5 0;
#X connect 2 0 5 1;
#X connect 3 0 4 0;
#X connect 4 0 10 1;
#X connect 5 0 7 0;
#X connect 6 0 1 0;
#X connect 6 1 2 0;
#X connect 7 0 11 0;
#X connect 8 0 12 0;
#X connect 9 0 8 0;
#X connect 10 0 8 1;
#X connect 11 0 9 0;
#X connect 11 1 10 0;
#X connect 11 2 3 0;
