#N canvas 539 99 854 505 10;
#X obj 240 186 gemhead;
#X floatatom 348 258 0 0 0 0 - - -;
#X obj 240 246 color;
#X msg 346 191 1 1 1;
#X msg 346 159 1 0 0;
#X obj 240 439 square;
#X text 328 139 change the color;
#X text 391 224 rotate the square;
#X msg 344 333 draw line;
#X msg 344 304 draw fill;
#X msg 344 372 width 1;
#X msg 344 391 width 10;
#X obj 240 297 rotate;
#X obj 20 59 cnv 15 220 70 empty empty empty 20 12 0 14 -195568 -66577
0;
#N canvas 0 22 454 304 gemwin 0;
#X obj 132 136 gemwin;
#X obj 67 89 outlet;
#X obj 67 10 inlet;
#X obj 67 41 route create;
#X msg 67 70 set destroy;
#X msg 182 68 set create;
#X msg 132 112 create \, 1;
#X msg 238 112 destroy;
#N canvas 87 154 247 179 Gem.init 0;
#X obj 59 46 loadbang;
#X msg 118 81 reset;
#X obj 118 113 outlet;
#X obj 59 65 t b b;
#X connect 0 0 3 0;
#X connect 1 0 2 0;
#X connect 3 1 1 0;
#X restore 289 80 pd Gem.init;
#X connect 2 0 3 0;
#X connect 3 0 4 0;
#X connect 3 0 6 0;
#X connect 3 1 5 0;
#X connect 3 1 7 0;
#X connect 4 0 1 0;
#X connect 5 0 1 0;
#X connect 6 0 0 0;
#X connect 7 0 0 0;
#X connect 8 0 0 0;
#X restore 25 103 pd gemwin;
#X msg 25 79 destroy;
#X text 21 59 Create window and render;
#X text 386 157 red;
#X text 389 192 white;
#X text 379 260 (in degree);
#X obj 351 240 hsl 128 15 0 359 0 1 empty empty empty -2 -8 0 10 -4034
-1 -1 0 1;
#X obj 502 37 cnv 15 200 400 empty empty Automation 20 12 0 14 -262130
-66577 0;
#X obj 515 80 tgl 15 0 empty empty empty 17 7 0 10 -4034 -1 -1 0 1
;
#X obj 515 124 counter;
#X floatatom 515 147 5 0 0 0 - - -;
#X obj 515 169 % 360;
#X obj 515 101 metro 10;
#X msg 592 358 width \$1;
#X obj 592 308 % 20;
#X obj 515 215 int;
#X floatatom 515 238 5 0 0 0 - - -;
#X obj 515 192 / 180;
#X obj 515 260 moses 1;
#X obj 515 288 bng 15 250 50 0 empty empty empty 17 7 0 10 -262144
-1 -1;
#X obj 554 288 bng 15 250 50 0 empty empty empty 17 7 0 10 -262144
-1 -1;
#X msg 417 93 min 0;
#X obj 417 42 loadbang;
#X msg 458 93 max 90;
#X obj 592 332 + 1;
#N canvas 651 368 469 365 audioStuff 0;
#X obj 65 108 sigmund~;
#X floatatom 65 143 5 0 0 0 - - -;
#X obj 64 66 adc~;
#X obj 68 261 hsl 128 15 0 127 0 0 empty empty empty -2 -8 0 10 -262144
-1 -1 400 1;
#X obj 65 224 line;
#X msg 65 197 \$1 250;
#X obj 64 169 max 0;
#X floatatom 115 184 5 0 0 0 - - -;
#X obj 64 291 outlet;
#X connect 0 0 1 0;
#X connect 1 0 6 0;
#X connect 2 0 0 0;
#X connect 3 0 8 0;
#X connect 4 0 3 0;
#X connect 5 0 4 0;
#X connect 6 0 5 0;
#X connect 6 0 7 0;
#X restore 55 178 pd audioStuff;
#X floatatom 55 207 5 0 0 0 - - -;
#X floatatom 55 265 5 0 0 0 - - -;
#X obj 55 235 expr ($f1/25)+.5;
#X msg 324 72 \; pd dsp 1;
#X text 306 100 turn on audio;
#X text 6 157 make larger depending on mic pitch;
#X text 26 3 This demonstrates how to create a red square;
#X text 37 19 Extra stuff by Leonard Paul - SoVGA.com;
#X connect 0 0 2 0;
#X connect 1 0 12 1;
#X connect 2 0 12 0;
#X connect 3 0 2 1;
#X connect 4 0 2 1;
#X connect 8 0 5 0;
#X connect 9 0 5 0;
#X connect 10 0 5 0;
#X connect 11 0 5 0;
#X connect 12 0 5 0;
#X connect 14 0 15 0;
#X connect 15 0 14 0;
#X connect 20 0 1 0;
#X connect 22 0 26 0;
#X connect 23 0 24 0;
#X connect 24 0 25 0;
#X connect 25 0 28 0;
#X connect 25 0 31 0;
#X connect 25 0 20 0;
#X connect 26 0 23 0;
#X connect 27 0 5 0;
#X connect 28 0 38 0;
#X connect 29 0 30 0;
#X connect 30 0 32 0;
#X connect 31 0 29 0;
#X connect 32 0 33 0;
#X connect 32 1 34 0;
#X connect 33 0 9 0;
#X connect 34 0 8 0;
#X connect 35 0 23 0;
#X connect 36 0 35 0;
#X connect 36 0 37 0;
#X connect 36 0 43 0;
#X connect 37 0 23 0;
#X connect 38 0 27 0;
#X connect 39 0 40 0;
#X connect 40 0 42 0;
#X connect 41 0 5 1;
#X connect 42 0 41 0;
