#N canvas 445 31 805 645 10;
#X obj 427 74 gemwin;
#X msg 452 32 0 \, destroy;
#X obj 156 -8 gemhead;
#X obj 156 72 repeat 200;
#X obj 156 42 rotateXYZ;
#X floatatom 173 17 5 0 0 0 - - -;
#X msg 201 441 draw line;
#X floatatom 261 375 5 0 0 0 - - -;
#X floatatom 203 289 5 0 0 0 - - -;
#X obj 156 173 alpha;
#X obj 202 132 counter 0 199;
#X obj 202 154 / 200;
#X obj 292 101 bang;
#X obj 202 176 - 1;
#X obj 202 201 abs;
#X floatatom 297 297 5 0 0 0 - - -;
#X obj 292 191 random 100;
#X obj 156 396 rotateXYZ 17 33 48;
#X obj 156 241 colorRGB 1 0 0 1;
#X obj 156 505 rectangle 1 1;
#N canvas 794 180 569 431 motionBlur 1;
#X obj 156 -371 pix_snap2tex;
#X msg 201 -395 0 0;
#X obj 201 -418 t b b;
#X obj 156 -411 t b a;
#X obj 156 -333 alpha;
#X floatatom 329 -343 5 0 0 0 - - -;
#X obj 334 -491 vsl 15 128 0 1 0 0 empty empty empty 0 -8 0 8 -262144
-1 -1 12573 1;
#X obj 201 -437 loadbang;
#X obj 156 -492 gemhead -1;
#X obj 307 -558 loadbang;
#X msg 309 -526 0.99;
#X obj 174 -462 translateXYZ 0 0 0.1;
#X msg 249 -397 500 500;
#X obj 156 -264 square 4.1;
#X obj 156 -309 colorRGB 1 1 1 0.888;
#X text 354 -441 amount of motion blur;
#X text 226 -263 larger than 3.9 makes blur go out;
#X text 229 -241 less than 3.9 makes blur go into screen;
#X connect 0 0 4 0;
#X connect 1 0 0 1;
#X connect 2 0 1 0;
#X connect 2 1 12 0;
#X connect 3 0 0 0;
#X connect 3 1 0 0;
#X connect 4 0 14 0;
#X connect 5 0 14 4;
#X connect 6 0 5 0;
#X connect 7 0 2 0;
#X connect 8 0 11 0;
#X connect 9 0 10 0;
#X connect 10 0 6 0;
#X connect 11 0 3 0;
#X connect 12 0 0 2;
#X connect 14 0 13 0;
#X restore 424 139 pd motionBlur;
#X obj 292 224 / 10000;
#X obj 156 324 translateXYZ 0 0.01 0.01;
#X text 211 16 rotates entire structure;
#X msg 201 465 draw fill;
#X text 364 190 add a bit of random to make it shake;
#X text -10 126 increase alpha transparency;
#X text 321 322 translate to stretch out shape;
#X text 314 385 rotate a bit to twist shape;
#X text 224 71 make 200 rectangles;
#X obj 394 -31 cnv 15 280 60 empty empty click_to_display 20 12 0 14
-257985 -66577 0;
#X msg 427 6 reset \, dimen 500 500 \, FSAA 8 \, create \, 1;
#X text 269 441 click to just show outline;
#X obj 289 488 r draw;
#X obj 322 358 r twisty;
#X obj 338 280 r stretch;
#X obj 221 0 r turn;
#X obj 577 112 hradio 15 1 1 4 empty empty presets 0 -8 0 10 -4034
-1 -1 3;
#X obj 600 130 bng 15 250 50 0 empty empty freeze 17 7 0 10 -260097
-1 -1;
#N canvas 944 145 478 700 morphPresets 0;
#X obj 25 34 inlet;
#X msg 46 382 \; rotate 0 \; translate -0.002 \; twist 100 \; draw
draw line;
#X msg 30 451 \; rotate 0 \; translate 0.01 \; twist 48 \; draw draw
fill;
#X obj 32 545 r twist;
#X obj 33 593 line;
#X msg 32 570 \$1 1000;
#X obj 32 617 s twisty;
#X obj 101 591 line;
#X msg 100 568 \$1 1000;
#X obj 100 543 r translate;
#X obj 100 615 s stretch;
#X obj 178 591 line;
#X msg 177 568 \$1 1000;
#X obj 177 543 r rotate;
#X obj 177 615 s turn;
#X msg 241 580 stop;
#X obj 403 469 inlet;
#X msg 63 310 \; rotate 0 \; translate 0.01 \; twist 48 \; draw draw
fill;
#X obj 404 492 bng 15 250 50 0 empty empty empty 17 7 0 10 -262144
-1 -1;
#X msg 79 241 \; rotate -50 \; translate -0.2 \; twist 90 \; draw draw
line;
#X obj 30 93 select 0 1 2 3;
#X connect 0 0 20 0;
#X connect 3 0 5 0;
#X connect 4 0 6 0;
#X connect 5 0 4 0;
#X connect 7 0 10 0;
#X connect 8 0 7 0;
#X connect 9 0 8 0;
#X connect 11 0 14 0;
#X connect 12 0 11 0;
#X connect 13 0 12 0;
#X connect 15 0 11 0;
#X connect 15 0 7 0;
#X connect 15 0 4 0;
#X connect 16 0 18 0;
#X connect 18 0 15 0;
#X connect 20 0 2 0;
#X connect 20 1 1 0;
#X connect 20 2 17 0;
#X connect 20 3 19 0;
#X restore 577 147 pd morphPresets;
#X connect 1 0 0 0;
#X connect 2 0 4 0;
#X connect 3 0 9 0;
#X connect 3 0 12 0;
#X connect 4 0 3 0;
#X connect 5 0 4 1;
#X connect 6 0 19 0;
#X connect 7 0 17 3;
#X connect 8 0 22 1;
#X connect 9 0 18 0;
#X connect 10 0 11 0;
#X connect 11 0 13 0;
#X connect 12 0 10 0;
#X connect 12 0 16 0;
#X connect 13 0 14 0;
#X connect 14 0 18 4;
#X connect 14 0 18 2;
#X connect 15 0 22 3;
#X connect 16 0 21 0;
#X connect 17 0 19 0;
#X connect 18 0 22 0;
#X connect 21 0 8 0;
#X connect 22 0 17 0;
#X connect 24 0 19 0;
#X connect 31 0 0 0;
#X connect 33 0 19 0;
#X connect 34 0 7 0;
#X connect 35 0 15 0;
#X connect 36 0 5 0;
#X connect 37 0 39 0;
#X connect 38 0 39 1;
