#N canvas 434 264 1023 406 10;
#X obj 103 245 world_light;
#X msg 426 138 bang;
#X obj 426 118 metro 500;
#X obj 426 100 tgl 15 0 empty empty empty 0 -6 0 8 -262144 -1 -1 1
1;
#X obj 643 234 pix_snap2tex;
#X msg 688 210 0 0;
#X msg 734 209 500 500;
#X obj 688 187 t b b;
#X obj 643 194 t b a;
#X obj 643 262 alpha;
#X floatatom 821 262 5 0 0 0 - - -;
#X obj 821 114 vsl 15 128 0 1 0 0 empty empty empty 0 -8 0 8 -4034
-1 -1 12573 1;
#X msg 97 118 frame \$1;
#X floatatom 97 100 5 0 60 0 frameRate - -;
#X obj 643 296 colorRGB 1 1 1 0.888;
#X obj 103 221 gemhead;
#X obj 688 168 loadbang;
#N canvas 0 22 749 590 moving 0;
#X obj 193 81 gemhead;
#X obj 193 384 translateXYZ;
#X obj 276 67 t b b;
#X obj 276 104 random 100;
#X obj 193 357 colorRGB 1 1 1;
#X obj 276 39 inlet;
#X obj 193 411 teapot;
#X obj 276 135 pack 0 1000;
#X obj 276 181 / 100;
#X obj 276 201 * 8;
#X obj 276 221 - 4;
#X obj 375 104 random 100;
#X obj 375 135 pack 0 1000;
#X obj 375 181 / 100;
#X obj 375 201 * 8;
#X obj 375 221 - 4;
#X obj 276 159 line 50 10;
#X obj 375 159 line 50 10;
#X obj 201 44 inlet;
#X connect 0 0 4 0;
#X connect 1 0 6 0;
#X connect 2 0 3 0;
#X connect 2 1 11 0;
#X connect 3 0 7 0;
#X connect 4 0 1 0;
#X connect 5 0 2 0;
#X connect 7 0 16 0;
#X connect 8 0 9 0;
#X connect 8 0 4 1;
#X connect 9 0 10 0;
#X connect 10 0 1 1;
#X connect 11 0 12 0;
#X connect 12 0 17 0;
#X connect 13 0 14 0;
#X connect 13 0 4 2;
#X connect 14 0 15 0;
#X connect 15 0 1 2;
#X connect 16 0 8 0;
#X connect 17 0 13 0;
#X connect 18 0 0 0;
#X restore 333 161 pd moving object;
#X text 326 31 FullScreen Motion Blur:;
#N canvas 87 154 414 208 Gem.init 0;
#X obj 118 46 loadbang;
#X obj 118 113 outlet;
#X msg 118 81 reset \, frame 100 \, lighting 1;
#X connect 0 0 2 0;
#X connect 2 0 1 0;
#X restore 127 143 pd Gem.init;
#N canvas 340 107 682 322 gemwin 0;
#X obj 102 122 tgl 15 0 \$0-gemstart \$0-gemstart empty 17 7 0 10 -4034
-1 -1 1 1;
#X obj 102 161 r \$0-gemstart;
#X obj 102 182 select 1 0;
#X msg 102 214 create \, 1;
#X msg 177 215 destroy;
#X obj 102 239 t a;
#X obj 318 54 inlet;
#X obj 318 255 gemwin;
#X obj 318 100 t a a;
#X obj 318 287 outlet;
#X obj 350 128 route create destroy;
#X obj 350 150 t b;
#X msg 350 172 1;
#X obj 390 150 t b;
#X msg 390 172 0;
#X obj 350 195 t f;
#X msg 350 219 set \$1;
#X text 118 122 rendering;
#X connect 1 0 2 0;
#X connect 2 0 3 0;
#X connect 2 1 4 0;
#X connect 3 0 5 0;
#X connect 4 0 5 0;
#X connect 5 0 8 0;
#X connect 6 0 8 0;
#X connect 7 0 9 0;
#X connect 8 0 7 0;
#X connect 8 1 10 0;
#X connect 10 0 11 0;
#X connect 10 1 13 0;
#X connect 11 0 12 0;
#X connect 12 0 15 0;
#X connect 13 0 14 0;
#X connect 14 0 15 0;
#X connect 15 0 16 0;
#X connect 16 0 0 0;
#X coords 0 -1 1 1 85 40 1 100 100;
#X restore 97 160 pd gemwin;
#X obj 333 116 tgl 15 0 empty empty empty 17 7 0 10 -262144 -1 -1 1
1;
#X obj 643 330 square 4.1;
#X obj 643 113 gemhead -1;
#X obj 821 47 loadbang;
#X msg 333 64 1;
#X msg 821 79 0.99;
#X obj 643 143 translateXYZ 0 0 0.1;
#X text 843 158 amount;
#X text 461 234 grab frame buffer for texture;
#X connect 1 0 17 1;
#X connect 2 0 1 0;
#X connect 3 0 2 0;
#X connect 4 0 9 0;
#X connect 5 0 4 1;
#X connect 6 0 4 2;
#X connect 7 0 5 0;
#X connect 7 1 6 0;
#X connect 8 0 4 0;
#X connect 8 1 4 0;
#X connect 9 0 14 0;
#X connect 10 0 14 4;
#X connect 11 0 10 0;
#X connect 12 0 20 0;
#X connect 13 0 12 0;
#X connect 14 0 22 0;
#X connect 15 0 0 0;
#X connect 16 0 7 0;
#X connect 19 0 20 0;
#X connect 21 0 17 0;
#X connect 23 0 27 0;
#X connect 24 0 26 0;
#X connect 24 0 25 0;
#X connect 25 0 3 0;
#X connect 25 0 21 0;
#X connect 26 0 11 0;
#X connect 27 0 8 0;
