#N canvas 520 22 1198 711 10;
#X obj 105 150 dac~;
#X floatatom 215 94 5 0 0 0 - - -;
#X obj 133 467 cnv 15 100 60 empty empty empty 20 12 0 14 -4034 -66577
0;
#X text 132 465 Create window:;
#X msg 70 -3 \; pd dsp 1;
#X obj 70 -23 loadbang;
#N canvas 621 128 450 300 gemwin 1;
#X obj 132 136 gemwin;
#X obj 67 89 outlet;
#X obj 67 10 inlet;
#X obj 67 41 route create;
#X msg 67 70 set destroy;
#X msg 142 68 set create;
#X msg 256 112 destroy;
#X obj 322 45 inlet;
#X msg 132 112 create \, FSAA 8 \, 1;
#X connect 2 0 3 0;
#X connect 3 0 4 0;
#X connect 3 0 8 0;
#X connect 3 1 5 0;
#X connect 3 1 6 0;
#X connect 4 0 1 0;
#X connect 5 0 1 0;
#X connect 6 0 0 0;
#X connect 7 0 0 0;
#X connect 8 0 0 0;
#X restore 139 506 pd gemwin;
#X msg 139 487 destroy;
#X obj 209 407 cnv 15 85 50 empty empty empty 20 12 0 14 -24198 -66577
0;
#X msg 211 434 lighting \$1;
#X obj 211 412 tgl 15 0 empty empty empty 0 -6 0 8 -262144 -1 -1 1
1;
#X obj 83 299 vu 15 120 empty empty -1 -8 0 10 -66577 -1 1 0;
#X obj 83 169 env~;
#X floatatom 82 190 5 0 0 0 - - -;
#X obj 82 212 - 100;
#X obj 136 77 oggamp~;
#X msg 51 56 disconnect;
#X text 222 5 Check out Icecast.org for more .ogg streams;
#X text 222 62 need internet to connect to the radio stream;
#N canvas 506 22 1224 767 cubes 0;
#X obj -85 440 world_light;
#X obj 220 52 gemhead;
#X obj 226 428 bang~;
#X obj 225 540 snapshot~;
#X obj 79 280 int;
#X msg 95 155 bang;
#X obj 63 426 translateXYZ;
#X floatatom 263 76 5 0 0 0 - - -;
#X floatatom 299 81 5 0 0 0 - - -;
#X floatatom 334 81 5 0 0 0 - - -;
#X obj 78 628 rotateXYZ;
#X obj 266 192 repeat 27;
#X obj 78 247 / 3;
#X obj 109 298 % 3;
#X obj 204 323 separator;
#X obj 85 394 / 3;
#X obj 109 387 / 3;
#X obj 132 285 int;
#X obj 132 396 / 3;
#X obj 132 257 / 9;
#X obj 52 367 -;
#X obj 81 208 t 0 0 0;
#X obj 224 569 * 360;
#X obj 307 522 snapshot~;
#X obj 311 565 * 360;
#X obj 187 532 r inst1;
#X obj 172 571 +;
#X obj 327 587 +;
#X obj 354 389 r inst2;
#X obj 249 484 r~ out;
#X obj 288 158 translateXYZ -0.3 -0.3 2;
#X obj 402 206 tgl 15 0 empty empty empty 17 7 0 10 -262144 -1 -1 1
1;
#X obj 399 260 random 128;
#X obj 387 300 line;
#X obj 349 347 s inst1;
#X obj 415 357 s inst2;
#X obj 402 232 metro 1000;
#X msg 388 281 \$1 1000;
#X obj 402 185 loadbang;
#X obj 31 77 inlet;
#X obj 97 77 inlet;
#X obj 249 515 *~ 1;
#X obj 392 80 inlet;
#X obj 63 447 separator;
#X obj 82 180 counter 26;
#X obj 74 341 * 3;
#X obj -80 362 gemhead;
#X obj 62 515 alpha;
#X obj 68 488 GEMglEnable;
#X obj 456 434 bng 15 250 50 0 empty empty empty 0 -6 0 8 -262144 -1
-1;
#X obj 474 432 loadbang;
#X obj 456 457 GLdefine GL_CULL_FACE;
#X obj 186 400 / 369;
#X obj 775 439 bang~;
#X obj 774 551 snapshot~;
#X obj 628 291 int;
#X msg 644 166 bang;
#X obj 612 437 translateXYZ;
#X obj 627 662 rotateXYZ;
#X obj 815 203 repeat 27;
#X obj 627 258 / 3;
#X obj 658 309 % 3;
#X obj 753 334 separator;
#X obj 634 405 / 3;
#X obj 658 398 / 3;
#X obj 681 296 int;
#X obj 681 407 / 3;
#X obj 681 268 / 9;
#X obj 601 378 -;
#X obj 630 219 t 0 0 0;
#X obj 773 580 * 360;
#X obj 856 533 snapshot~;
#X obj 860 576 * 360;
#X obj 609 628 colourRGB;
#X obj 736 543 r inst1;
#X obj 721 582 +;
#X obj 876 598 +;
#X obj 903 400 r inst2;
#X obj 798 495 r~ out;
#X obj 837 169 translateXYZ -0.3 -0.3 2;
#X obj 951 217 tgl 15 0 empty empty empty 17 7 0 10 -262144 -1 -1 1
1;
#X obj 948 271 random 128;
#X obj 936 311 line;
#X obj 898 358 s inst1;
#X obj 964 353 s inst2;
#X obj 951 243 metro 1000;
#X msg 937 292 \$1 1000;
#X obj 951 196 loadbang;
#X obj 798 526 *~ 1;
#X obj 612 458 separator;
#X obj 631 191 counter 26;
#X obj 623 352 * 3;
#X obj 621 719 cube 0.15;
#X obj 611 488 GEMglEnable;
#X obj 1005 445 bng 15 250 50 0 empty empty empty 0 -6 0 8 -262144
-1 -1;
#X obj 1023 443 loadbang;
#X obj 1005 468 GLdefine GL_CULL_FACE;
#X obj 735 411 / 369;
#X obj 845 89 gemhead;
#X obj 618 564 alpha;
#X obj 393 621 GEMglCullFace;
#X obj 458 544 bng 15 250 50 0 empty empty empty 0 -6 0 8 -262144 -1
-1;
#X obj 458 567 GLdefine GL_FRONT;
#X obj 201 711 GEMglCullFace;
#X obj 266 634 bng 15 250 50 0 empty empty empty 0 -6 0 8 -262144 -1
-1;
#X obj 266 657 GLdefine GL_BACK;
#X obj 53 586 colourRGB;
#X obj 582 599 depth 1;
#X obj 35 543 depth 1;
#X obj 74 683 cube 0.1;
#X connect 1 0 30 0;
#X connect 2 0 23 0;
#X connect 2 0 3 0;
#X connect 3 0 22 0;
#X connect 3 0 106 1;
#X connect 4 0 20 0;
#X connect 5 0 44 0;
#X connect 6 0 43 0;
#X connect 10 0 109 0;
#X connect 11 0 5 0;
#X connect 11 0 14 0;
#X connect 12 0 4 0;
#X connect 13 0 16 0;
#X connect 14 0 6 0;
#X connect 15 0 6 1;
#X connect 16 0 6 2;
#X connect 17 0 18 0;
#X connect 17 0 45 0;
#X connect 18 0 6 3;
#X connect 19 0 17 0;
#X connect 20 0 15 0;
#X connect 21 0 12 0;
#X connect 21 1 13 0;
#X connect 21 2 19 0;
#X connect 22 0 26 0;
#X connect 23 0 24 0;
#X connect 24 0 27 0;
#X connect 25 0 26 1;
#X connect 26 0 10 1;
#X connect 27 0 10 3;
#X connect 28 0 27 1;
#X connect 29 0 41 0;
#X connect 30 0 11 0;
#X connect 31 0 36 0;
#X connect 32 0 37 0;
#X connect 33 0 34 0;
#X connect 33 0 35 0;
#X connect 36 0 32 0;
#X connect 37 0 33 0;
#X connect 38 0 31 0;
#X connect 39 0 52 0;
#X connect 39 0 97 0;
#X connect 40 0 35 0;
#X connect 41 0 3 0;
#X connect 41 0 23 0;
#X connect 42 0 92 1;
#X connect 42 0 109 1;
#X connect 43 0 48 0;
#X connect 44 0 21 0;
#X connect 45 0 20 1;
#X connect 46 0 0 0;
#X connect 47 0 108 0;
#X connect 48 0 47 0;
#X connect 49 0 51 0;
#X connect 50 0 51 0;
#X connect 50 0 105 0;
#X connect 51 0 48 1;
#X connect 52 0 106 4;
#X connect 53 0 71 0;
#X connect 53 0 54 0;
#X connect 54 0 70 0;
#X connect 54 0 73 1;
#X connect 55 0 68 0;
#X connect 56 0 90 0;
#X connect 57 0 89 0;
#X connect 59 0 56 0;
#X connect 59 0 62 0;
#X connect 60 0 55 0;
#X connect 61 0 64 0;
#X connect 62 0 57 0;
#X connect 63 0 57 1;
#X connect 64 0 57 2;
#X connect 65 0 66 0;
#X connect 65 0 91 0;
#X connect 66 0 57 3;
#X connect 67 0 65 0;
#X connect 68 0 63 0;
#X connect 69 0 60 0;
#X connect 69 1 61 0;
#X connect 69 2 67 0;
#X connect 70 0 75 0;
#X connect 71 0 72 0;
#X connect 72 0 76 0;
#X connect 73 0 58 0;
#X connect 74 0 75 1;
#X connect 75 0 58 1;
#X connect 76 0 58 3;
#X connect 77 0 76 1;
#X connect 78 0 88 0;
#X connect 79 0 59 0;
#X connect 80 0 85 0;
#X connect 81 0 86 0;
#X connect 82 0 83 0;
#X connect 82 0 84 0;
#X connect 85 0 81 0;
#X connect 86 0 82 0;
#X connect 87 0 80 0;
#X connect 88 0 54 0;
#X connect 88 0 71 0;
#X connect 89 0 93 0;
#X connect 90 0 69 0;
#X connect 91 0 68 1;
#X connect 93 0 100 0;
#X connect 94 0 96 0;
#X connect 95 0 96 0;
#X connect 95 0 102 0;
#X connect 96 0 93 1;
#X connect 97 0 73 4;
#X connect 98 0 79 0;
#X connect 99 0 107 0;
#X connect 100 0 99 0;
#X connect 101 0 102 0;
#X connect 102 0 100 1;
#X connect 103 0 106 0;
#X connect 104 0 105 0;
#X connect 105 0 103 1;
#X connect 106 0 10 0;
#X connect 107 0 73 0;
#X connect 108 0 103 0;
#X restore 501 508 pd cubes;
#X obj 367 180 env~;
#X floatatom 367 210 5 0 0 0 - - -;
#X obj 368 264 vu 15 120 empty empty -1 -8 0 10 -66577 -1 1 0;
#X obj 367 232 - 100;
#X obj 131 258 line;
#X msg 133 237 \$1 1000;
#X obj 456 262 line;
#X obj 547 321 threshold;
#X obj 547 255 line;
#X msg 546 226 \$1 1000;
#X obj 547 351 bng 15 250 50 0 empty empty empty 17 7 0 10 -262144
-1 -1;
#X obj 599 351 bng 15 250 50 0 empty empty empty 17 7 0 10 -262144
-1 -1;
#X msg 547 282 set \$1 10 \$1 10;
#X obj 367 155 lop~ 100;
#X obj 599 502 line;
#X msg 599 474 \$1 100;
#X obj 599 444 random 360;
#X msg 456 238 \$1 100;
#X obj 219 193 bonk~;
#X floatatom 219 225 5 0 0 0 - - -;
#X floatatom 267 224 5 0 0 0 - - -;
#X obj 222 256 hsl 128 15 0 127 0 0 empty empty empty -2 -8 0 10 -262144
-1 -1 0 1;
#X obj 501 484 line;
#X obj 501 438 delay 10;
#X msg 445 460 180 10;
#X msg 501 460 90 100;
#X obj 184 24 cnv 15 300 40 empty empty empty 20 12 0 14 -4034 -66577
0;
#X msg 191 37 connect revolutionradio.ru live.ogg;
#X text 217 274 for comparison;
#X text 610 320 detect kick drum + pulse;
#X obj 149 137 s~ out;
#X connect 5 0 4 0;
#X connect 6 0 7 0;
#X connect 7 0 6 0;
#X connect 9 0 6 1;
#X connect 10 0 9 0;
#X connect 12 0 13 0;
#X connect 13 0 14 0;
#X connect 14 0 11 0;
#X connect 14 0 25 0;
#X connect 15 0 0 0;
#X connect 15 0 12 0;
#X connect 15 0 33 0;
#X connect 15 0 38 0;
#X connect 15 0 50 0;
#X connect 15 1 0 1;
#X connect 15 2 1 0;
#X connect 16 0 15 0;
#X connect 20 0 21 0;
#X connect 21 0 23 0;
#X connect 21 0 37 0;
#X connect 21 0 29 0;
#X connect 23 0 22 0;
#X connect 24 0 11 1;
#X connect 25 0 24 0;
#X connect 26 0 27 0;
#X connect 27 0 30 0;
#X connect 27 1 31 0;
#X connect 28 0 32 0;
#X connect 29 0 28 0;
#X connect 30 0 44 0;
#X connect 31 0 36 0;
#X connect 32 0 27 0;
#X connect 33 0 20 0;
#X connect 35 0 34 0;
#X connect 36 0 35 0;
#X connect 37 0 26 0;
#X connect 38 0 39 0;
#X connect 38 1 40 0;
#X connect 39 0 41 0;
#X connect 42 0 19 0;
#X connect 43 0 45 0;
#X connect 44 0 42 0;
#X connect 45 0 42 0;
#X connect 47 0 15 0;
