#N canvas 560 311 813 450 10;
#X obj 59 177 maxlib/scale -1 1 0 360;
#X obj 59 66 threshold~;
#X obj 59 133 snapshot~;
#X obj 59 38 osc~ 10;
#X floatatom 59 208 5 0 0 0 - - -;
#X obj 282 36 loadbang;
#X msg 278 65 \; pd dsp 1;
#X text 273 90 turn on audio;
#X text 121 132 grab sin wave every 1/10 second;
#X obj 422 223 gemhead;
#X obj 544 27 cnv 15 220 70 empty empty empty 20 12 0 14 -195568 -66577
0;
#N canvas 0 22 454 304 gemwin 0;
#X obj 132 136 gemwin;
#X obj 67 89 outlet;
#X obj 67 10 inlet;
#X obj 67 41 route create;
#X msg 67 70 set destroy;
#X msg 182 68 set create;
#X msg 132 112 create \, 1;
#X msg 238 112 destroy;
#N canvas 87 154 247 179 Gem.init 0;
#X obj 59 46 loadbang;
#X msg 118 81 reset;
#X obj 118 113 outlet;
#X obj 59 65 t b b;
#X connect 0 0 3 0;
#X connect 1 0 2 0;
#X connect 3 1 1 0;
#X restore 289 80 pd Gem.init;
#X connect 2 0 3 0;
#X connect 3 0 4 0;
#X connect 3 0 6 0;
#X connect 3 1 5 0;
#X connect 3 1 7 0;
#X connect 4 0 1 0;
#X connect 5 0 1 0;
#X connect 6 0 0 0;
#X connect 7 0 0 0;
#X connect 8 0 0 0;
#X restore 549 71 pd gemwin;
#X msg 549 47 destroy;
#X text 545 27 Create window and render;
#X obj 422 308 square;
#X obj 422 266 rotateXYZ;
#X text 489 266 rotate square based on sin wave;
#X text 208 178 scale -1 to 1 into 0 to 360;
#X obj 75 100 osc~ 0.5;
#X connect 0 0 4 0;
#X connect 1 0 2 0;
#X connect 2 0 0 0;
#X connect 3 0 1 0;
#X connect 4 0 15 1;
#X connect 5 0 6 0;
#X connect 9 0 15 0;
#X connect 11 0 12 0;
#X connect 12 0 11 0;
#X connect 15 0 14 0;
#X connect 18 0 2 0;
